<svg xmlns="http://www.w3.org/2000/svg" width="112.677" height="19.256" viewBox="0 0 112.677 19.256">
  <path id="Path_14339" data-name="Path 14339" d="M37.915,14.349c0-2.173,0-4.363-.044-6.542H33.965l-.579,3.22H31.978l.2-4.477H45.914l.2,4.477H44.707l-.579-3.22H40.223c-.043,2.143-.043,4.333-.043,6.542v1.257c0,2.163,0,4.344.043,6.515l2.6.277v1.007H35.274V22.4l2.6-.277c.044-2.136.044-4.316.044-6.515Zm15.922,7.366c-1.387,1.374-2.234,2.017-3.7,2.017a3.069,3.069,0,0,1-3.37-3.144c0-1.41.754-2.542,4.124-3.774a29.129,29.129,0,0,1,2.893-.846v-.613c0-2.466-.7-3.069-2.364-3.069a5.611,5.611,0,0,0-1.409.174l-.5,1.662c-.226.73-.6,1.131-1.283,1.131a1.027,1.027,0,0,1-1.131-1.006c.477-1.912,2.339-3.094,4.855-3.094,2.592,0,3.849,1.183,3.849,4.353V20.84c0,1.131.353,1.534.931,1.534a1.243,1.243,0,0,0,.98-.554l.5.554a2.35,2.35,0,0,1-2.139,1.283A2.183,2.183,0,0,1,53.838,21.716ZM53.785,16.9a23.514,23.514,0,0,0-2.364.767c-2.264.88-2.516,1.836-2.516,2.566,0,1.333.881,1.862,2.039,1.862.856,0,1.356-.309,2.842-1.37ZM62.864,4.789l.351.2-.1,3.573v9.559l.044,4.04,2.043.361v.881H59.015v-.881l2.043-.361.044-4.04V7.053L59.015,6.8v-.88ZM77.377,15.96a5.1,5.1,0,0,1-.176,1.409H69.128c.04,3.114,1.642,4.779,4.123,4.779a4.353,4.353,0,0,0,3.522-1.786l.579.453a5.11,5.11,0,0,1-4.8,2.919c-3.372,0-5.56-2.34-5.56-6.165,0-3.849,2.617-6.415,5.736-6.415A4.491,4.491,0,0,1,77.377,15.96Zm-3.472.351c1.207,0,1.484-.579,1.484-1.283A2.791,2.791,0,0,0,72.6,12.286c-1.463,0-3.133,1.121-3.426,4.024Zm17.355-.5v2.314l.039,4.043,1.8.359v.881H87.311v-.881l1.9-.344.04-4.057V16.01c0-2.34-.6-3.094-2.113-3.094a5.273,5.273,0,0,0-3.522,1.566v3.642l.039,4.043,1.8.359v.881H79.663v-.881l1.9-.344.04-4.057V16.94c0-1.383-.026-2.163-.076-3.169l-2.013-.227v-.88l3.422-1.51.377.251.211,2.039a6.625,6.625,0,0,1,4.543-2.29C90.229,11.154,91.261,12.488,91.261,15.808Zm8.222,6.666a2.865,2.865,0,0,0,1.71-.7l.579.68a3.6,3.6,0,0,1-2.917,1.283,2.543,2.543,0,0,1-2.819-2.843c0-.6.026-1.133.026-2.113V12.789H93.948V11.708l2.246-.29.621-3.359h1.46l-.157,3.422h3.427v1.309H98.074v7.823C98.074,21.921,98.627,22.474,99.483,22.474Zm8.375,0a2.862,2.862,0,0,0,1.71-.7l.579.68a3.6,3.6,0,0,1-2.917,1.283,2.542,2.542,0,0,1-2.817-2.843c0-.6.024-1.133.024-2.113V12.789h-2.113V11.708l2.246-.29.621-3.359h1.46l-.157,3.422h3.427v1.309h-3.472v7.823C106.449,21.921,107,22.474,107.857,22.474Zm3.52-4.98c0-4.176,2.843-6.34,5.736-6.34,2.842,0,5.735,2.164,5.735,6.34s-2.893,6.239-5.735,6.239C114.22,23.733,111.377,21.67,111.377,17.494Zm9.208,0c0-3.372-1.284-5.207-3.472-5.207-2.24,0-3.472,1.836-3.472,5.207s1.231,5.106,3.472,5.106C119.3,22.6,120.585,20.864,120.585,17.494Zm4.575,0c0-4.176,2.843-6.34,5.736-6.34,2.842,0,5.735,2.164,5.735,6.34s-2.893,6.239-5.735,6.239C128,23.733,125.16,21.67,125.16,17.494Zm9.208,0c0-3.372-1.283-5.207-3.472-5.207-2.239,0-3.472,1.836-3.472,5.207S128.657,22.6,130.9,22.6C133.084,22.6,134.367,20.864,134.367,17.494Zm7.642-12.7.351.2-.1,3.573v9.559l.044,4.04,2.043.361v.881H138.16v-.881l2.043-.361.044-4.04V7.053L138.16,6.8v-.88Z" transform="translate(-31.821 -4.627)" stroke="#000" stroke-width="0.3"/>
</svg>
